<svg width="160" height="60" viewBox="-4 0 373.667 96.425" class="looka-1j8o68f"><path fill="#fff" xmlns="http://www.w3.org/2000/svg" d="m77.173 45.59-2.111-6.495a1.03 1.03 0 0 0-.98-.711H52.111L45.392 17.71a1.03 1.03 0 0 0-.978-.71H30.756c-.446 0-.842.286-.98.71l-6.79 20.898H1.25c-.447 0-.841.287-.979.71l-2.11 6.496-2.111 6.496c-.137.424.014.889.374 1.151L14.2 66.377 7.484 87.05a1.03 1.03 0 0 0 .374 1.152l5.525 4.014.003.001 5.522 4.012a1.03 1.03 0 0 0 1.21 0l17.777-12.914L55.48 96.09a1.03 1.03 0 0 0 1.21 0l5.527-4.015 5.525-4.014a1.03 1.03 0 0 0 .374-1.152l-6.791-20.896 17.584-12.777c.361-.262.512-.727.374-1.151zm-3.838-5.148 1.648 5.073-5.535 4.022-10.904 7.92-.35-1.078-1.09-3.357 8.644-6.28a1.03 1.03 0 0 0-.605-1.863l-28.132-.002 1.44-4.435zM32.43 52.312v.004l-2.214 6.815-3.965-2.881 7.921-24.38 2.451 7.543-.306.94-1.701 5.236zm8.82 1.348 2.192 6.744-5.737 4.168-5.738-4.167 2.192-6.745zm-5.297 12.185-3.966 2.88L11.249 53.66h7.93zm-3.361 4.987 5.718-4.154.003-.002 5.797-4.213 1.515 4.663-2.917 2.119L24.89 82.19l2.45-7.542zM43.414 53.66h4.902l7.92 24.379-6.415-4.663-.639-1.968zm5.65-2.06H34.828l1.513-4.662h25.632L55.556 51.6zm-5.398-32.54 6.277 19.324h-4.663L39.003 19.06zM24.715 39.957v-.002l6.79-20.895h5.33l6.279 19.324h-4.662L35.15 28.22a1.03 1.03 0 0 0-1.96 0l-8.694 26.754-3.772-2.74 1.88-5.783zm-22.716.711h20.317l-1.44 4.435H.557zm-3.76 11.568 1.65-5.073h20.317L18.765 51.6H8.079a1.03 1.03 0 0 0-.605 1.863l22.76 16.537-3.773 2.74-.003-.002-4.916-3.573-5.526-4.013zM9.675 86.975l6.278-19.324 3.773 2.74-6.278 19.324zm27.615-5.768-.002.002-17.775 12.913-4.313-3.134 4.63-14.249 1.648-5.074 1.933 1.404 1.839 1.336-3.301 10.163a1.03 1.03 0 0 0 1.585 1.152l22.76-16.536 1.441 4.435-2.202 1.6-2.716 1.972-.002.001zm18.793 12.776L39.648 82.04l3.773-2.74 16.437 11.94zm9.84-7.148-4.314 3.134-16.438-11.943 3.023-2.196.75-.545 8.645 6.281a1.03 1.03 0 0 0 1.587-1.15L50.48 53.66h4.663zm-5.268-22.883-1.442-4.435 5.535-4.021 10.904-7.922 1.44 4.436z" /><path fill="#fff" d="M124.842 31.776q4.44 0 8.317 1.657c3.877 1.658 4.706 2.723 6.363 4.854l-4.735 3.611q-3.848-4.795-10.122-4.795-6.807 0-11.217 4.854c-4.41 4.854-4.41 7.302-4.41 12.194q0 7.103 4.35 11.72c4.351 4.617 6.66 4.617 11.277 4.617s8.266-1.873 10.95-5.623l4.795 3.61q-2.486 3.316-6.63 5.328c-4.143 2.013-5.839 2.013-9.234 2.013q-6.037 0-10.95-2.93c-4.913-2.93-5.86-4.638-7.755-8.05s-2.84-6.994-2.84-10.744q0-9.708 6.096-16.012c6.097-6.304 9.314-6.304 15.745-6.304m34.629 14.206q6.215 0 10.536 4.292c4.321 4.291 4.342 6.343 4.38 10.448q0 6.215-4.32 10.418c-4.322 4.202-6.414 4.24-10.596 4.32q-6.157 0-10.478-4.261c-4.32-4.262-4.36-6.334-4.44-10.477q0-6.097 4.292-10.36c4.292-4.261 6.402-4.3 10.626-4.38m-9.235 14.74q0 4.32 2.546 7.014c2.545 2.693 3.927 2.714 6.689 2.752q4.202 0 6.688-2.693c2.487-2.693 2.507-4.152 2.546-7.073q0-4.322-2.486-7.015c-2.486-2.693-3.928-2.714-6.808-2.752q-4.202 0-6.688 2.782c-2.487 2.782-2.487 4.182-2.487 6.985M209.193 30v44.75h-5.327v-4.025h-.119q-1.539 2.25-4.173 3.493c-2.634 1.243-3.62 1.243-5.594 1.243q-6.333-.06-10.27-4.203c-3.936-4.144-3.957-6.275-3.995-10.536q0-6.453 3.936-10.537c3.936-4.084 6.067-4.123 10.33-4.203q2.9 0 5.564 1.243c2.663 1.244 3.175 1.992 4.202 3.493h.119V30zm-23.796 30.722q0 4.32 2.546 7.014c2.545 2.693 3.927 2.714 6.688 2.752q4.203 0 6.719-2.693c2.516-2.693 2.516-4.152 2.516-7.073q0-4.322-2.486-7.015c-2.487-2.693-3.928-2.714-6.808-2.752q-4.143 0-6.659 2.723c-2.516 2.722-2.516 4.164-2.516 7.044m44.691-14.74q6.452 0 10.034 4.055c3.58 4.055 3.602 6.423 3.64 11.158v1.48h-22.493q0 3.433 2.752 5.771c2.752 2.338 4.075 2.36 6.718 2.398q4.38 0 7.696-4.203l4.025 3.078q-4.499 5.742-12.43 5.742-6.453 0-10.39-4.114c-3.936-4.114-3.974-6.284-4.054-10.625q0-6.275 4.055-10.448c4.054-4.173 6.185-4.212 10.447-4.292m7.991 12.431q-.118-3.966-2.249-6.067c-2.13-2.102-3.374-2.102-5.86-2.102q-2.486 0-4.47 1.214c-1.982 1.213-2.358 1.856-3.107 3.137s-1.124 2.554-1.124 3.818zm25.454-26.637q8.168 0 12.075 4.795l-4.617 4.202q-1.066-1.657-3.019-2.663c-1.953-1.007-2.803-1.007-4.499-1.007q-3.67 0-5.89 1.806c-2.22 1.805-2.22 2.752-2.22 4.646q0 4.736 6.275 6.63l5.269 1.717q4.44 1.42 6.777 3.966c2.338 2.545 2.338 4.025 2.338 6.985q0 5.8-4.114 9.382c-4.113 3.58-6.224 3.58-10.447 3.58q-9.057 0-13.378-5.8l4.676-4.025q1.362 2.13 3.73 3.315c2.367 1.183 3.294 1.183 5.15 1.183q3.492 0 5.919-2.012c2.427-2.013 2.427-2.998 2.427-4.972q0-2.19-1.48-3.67c-1.48-1.48-2.762-1.874-5.328-2.664l-3.729-1.243q-5.623-1.894-7.872-4.824c-2.25-2.93-2.25-4.47-2.25-7.548q0-4.913 3.966-8.346c3.966-3.433 6.059-3.433 10.24-3.433m22.317 14.917 8.346 21.901h.118l7.932-21.901h5.742l-13.26 33.977q-1.834 4.913-4.025 6.6c-2.19 1.687-3.335 1.687-5.623 1.687q-2.9 0-4.735-.77l.65-4.794q1.658.592 3.197.592 2.486 0 3.581-1.214c1.095-1.213 1.37-1.962 1.924-3.463l1.657-4.38-11.66-28.235zm41.494-.71q4.736 0 7.429 2.84c2.693 2.842 2.714 4.44 2.752 7.637v18.29h-5.327V58q0-3.256-1.687-5.15c-1.687-1.894-2.693-1.894-4.706-1.894q-3.73 0-5.771 2.486c-2.042 2.486-2.042 3.868-2.042 6.63v14.68h-5.328V46.692h5.328v4.32h.118q1.125-2.367 3.64-3.699c2.516-1.332 3.543-1.332 5.594-1.332m31.55.06q6.689 0 10.773 4.44l-4.025 3.67q-2.9-3.138-6.985-3.138-3.906 0-6.333 2.782c-2.427 2.782-2.427 4.241-2.427 7.162q0 4.144 2.545 6.808c2.545 2.663 3.868 2.684 6.511 2.722q4.203 0 6.808-3.137l3.788 3.789q-3.788 4.32-10.655 4.32-6.452 0-10.507-4.024c-4.054-4.026-4.093-6.216-4.173-10.596q.06-6.689 4.173-10.714c4.114-4.025 6.245-4.046 10.507-4.084" /></svg>